<svg width="23" height="29" viewBox="0 0 23 29" fill="none" xmlns="http://www.w3.org/2000/svg">
<path d="M5.05941 7.40755C6.67024 7.40755 7.97608 6.10172 7.97608 4.49089C7.97608 2.88005 6.67024 1.57422 5.05941 1.57422C3.44858 1.57422 2.14274 2.88005 2.14274 4.49089C2.14274 6.10172 3.44858 7.40755 5.05941 7.40755Z" stroke="#007DC3" stroke-width="2" stroke-linecap="round" stroke-linejoin="round"/>
<path d="M18.1844 7.40755C19.7952 7.40755 21.1011 6.10172 21.1011 4.49089C21.1011 2.88005 19.7952 1.57422 18.1844 1.57422C16.5736 1.57422 15.2677 2.88005 15.2677 4.49089C15.2677 6.10172 16.5736 7.40755 18.1844 7.40755Z" stroke="#007DC3" stroke-width="2" stroke-linecap="round" stroke-linejoin="round"/>
<path d="M1.41357 11.7826H8.70524L7.24691 27.8242H2.87191L1.41357 11.7826Z" stroke="#007DC3" stroke-width="2" stroke-linecap="round" stroke-linejoin="round"/>
<path d="M14.5386 11.7826H21.8302L20.3719 27.8242H15.9969L14.5386 11.7826Z" stroke="#007DC3" stroke-width="2" stroke-linecap="round" stroke-linejoin="round"/>
</svg>
